ffmpeg started on 2024-04-21 at 14:44:14
Report written to "D:/java/GitHub/pornMagnetSpringBoot/_91pornyy/ffmpeg_and_SimpleG/Logs/2024-04-21_14-44-03-291_ffreport.log"
Command line:
"D:\\java\\GitHub\\pornMagnetSpringBoot\\ffmpeg.exe" -loglevel warning -i "concat:0.ts|1.ts|2.ts|3.ts|4.ts|5.ts|6.ts|7.ts|8.ts|" -map "0:v?" -map "0:a?" -map "0:s?" -metadata "date=2024-04-21T14:44:13.9899761+08:00" -metadata "encoding_tool=" -metadata "title=" -metadata "copyright=" -metadata "comment=" -metadata:s:a:0 "handler_name=" -metadata:s:a:0 "handler=" -c copy -y -bsf:a aac_adtstoasc "D:\\java\\GitHub\\pornMagnetSpringBoot\\_91pornyy\\ffmpeg_and_SimpleG\\Downloads\\\xba\xc3\xcb\xac\xba\xc3\xcb\xac\xb0\xa1\xb2\xbb\xd2\xaa\xd3\xf9\xbd\xe3\xbd\xd0\xb5\xc4\xd5\xe6\xba\xc3\xcc\xfd.mp4"
ffmpeg version N-94813-g85386c36e3-ffmpeg-for-N_m3u8DL-CLI Copyright (c) 2000-2019 the FFmpeg developers
  built with gcc 8.2.0 (GCC)
  libavutil      56. 35.100 / 56. 35.100
  libavcodec     58. 56.101 / 58. 56.101
  libavformat    58. 32.104 / 58. 32.104
  libavfilter     7. 58.102 /  7. 58.102
  libavresample   4.  0.  0 /  4.  0.  0
  libswresample   3.  6.100 /  3.  6.100
Input #0, mpegts, from 'concat:0.ts|1.ts|2.ts|3.ts|4.ts|5.ts|6.ts|7.ts|8.ts|':
  Duration: 00:01:01.62, start: 1.443444, bitrate: 460 kb/s
  Program 1 
    Metadata:
      service_name    : Service01
      service_provider: FFmpeg
    Stream #0:0[0x100]: Video: h264 ([27][0][0][0] / 0x001B), yuv420p(progressive), 202x360 [SAR 405:404 DAR 9:16], 30 fps, 30 tbr, 90k tbn, 60 tbc
    Stream #0:1[0x101](eng): Audio: aac ([15][0][0][0] / 0x000F), 44100 Hz, stereo, fltp, 113 kb/s
Output #0, mp4, to 'D:\java\GitHub\pornMagnetSpringBoot\_91pornyy\ffmpeg_and_SimpleG\Downloads\好爽好爽啊不要御姐叫的真好听.mp4':
  Metadata:
    date            : 2024-04-21T14:44:13.9899761+08:00
    encoder         : Lavf58.32.104
    Stream #0:0: Video: h264 (avc1 / 0x31637661), yuv420p(progressive), 202x360 [SAR 405:404 DAR 9:16], q=2-31, 30 fps, 30 tbr, 90k tbn, 90k tbc
    Stream #0:1(eng): Audio: aac (mp4a / 0x6134706D), 44100 Hz, stereo, fltp, 113 kb/s
Stream mapping:
  Stream #0:0 -> #0:0 (copy)
  Stream #0:1 -> #0:1 (copy)
Press [q] to stop, [?] for help
frame= 1848 fps=0.0 q=-1.0 Lsize=    3188kB time=00:01:01.60 bitrate= 423.9kbits/s speed=1.96e+03x    
video:2133kB audio:988kB subtitle:0kB other streams:0kB global headers:0kB muxing overhead: 2.131457%
